<?xml version="1.0" encoding="UTF-8"?>
<svg xmlns="http://www.w3.org/2000/svg" version="1.1" viewBox="0 0 371 371">
  <defs>
    <style>
      .cls-1 {
        fill: #fff;
      }

      .cls-2 {
        fill: none;
      }

      .cls-3 {
        fill: #00d2ff;
      }

      .cls-4 {
        fill: #ff004e;
      }
    </style>
  </defs>
  <!-- Generator: Adobe Illustrator 28.6.0, SVG Export Plug-In . SVG Version: 1.2.0 Build 709)  -->
  <g>
    <g id="Ebene_1">
      <g>
        <circle class="cls-1" cx="185.5" cy="185.5" r="185.5"/>
        <g>
          <polygon class="cls-2" points="150.49 204.83 175.16 204.83 171.63 154.88 150.49 204.83"/>
          <polygon class="cls-3" points="223.52 114.17 207.23 206.59 212.77 256.02 227.29 256.02 252.3 114.17 223.52 114.17"/>
          <path d="M203.15,206.59l-10.36-92.42h-27.96l-65.92,141.85h30.01l11.53-26.93h36.18l2.03,26.93h30.02l-5.54-49.44ZM150.49,204.83l21.14-49.96,3.53,49.96h-24.67Z"/>
          <path d="M335.56,114.17l-25.01,141.85h-24.05l-26.42-77.5-13.67,77.5h-15.23l25.01-141.85h10.3l26.41,78.74,13.88-78.74h28.78Z"/>
          <path class="cls-4" d="M114.97,151.24c-4.16-8.22-9.25-13.43-17.47-13.43-9.62,0-15.25,5.81-16.91,15.23-1.91,10.82,3.33,15.23,17.11,20.04,23.43,8.02,32.05,18.24,27.74,42.68-3.99,22.64-21.53,40.28-48.18,40.28-20.64,0-33.7-6.61-41.7-22.64l23.65-14.83c5,8.01,9.99,13.83,20.21,13.83,11.22,0,16.27-7.01,17.75-15.43,1.7-9.62-1.76-15.03-18.2-20.64-21.9-7.61-30.46-20.44-26.43-43.28,3.85-21.84,19.88-38.88,47.93-38.88,18.44,0,31.99,7.21,37.32,22.44l-22.82,14.63Z"/>
        </g>
      </g>
    </g>
  </g>
</svg>